PathFileType	4	(X/Y/Z)	/Users/itak/Documents/Research/Walk-IL/dataset/trc/00258_00009.trc
DataRate	CameraRate	NumFrames	NumMarkers	Units	OrigDataRate	OrigDataStartFrame	OrigNumFrames
100.000000	100.000000	4	53	mm	100.000000	452	517
Frame#	Time	LPSI			L3			STRN			T10			C7			CLAV			RBAK			LBAK			LSHO			LUPA			LAEL			LAOL			LWTS			LWPS			LFRA			LIFD			LHPS			LHTS			RSHO			RUPA			RAEL			RAOL			RWTS			RWPS			RFRA			RIFD			RHTS			RHPS			RBHD			LFHD			RFHD			LBHD			LHIP			RHIP			RASI			LASI			LKNE			LTHI			LANK			LTIP			LTOE			LMT1			LMT5			LHEE			RKNE			RTHI			RANK			RTIP			RTOE			RMT1			RMT5			RHEE			RPSI			
		X1	Y1	Z1	X2	Y2	Z2	X3	Y3	Z3	X4	Y4	Z4	X5	Y5	Z5	X6	Y6	Z6	X7	Y7	Z7	X8	Y8	Z8	X9	Y9	Z9	X10	Y10	Z10	X11	Y11	Z11	X12	Y12	Z12	X13	Y13	Z13	X14	Y14	Z14	X15	Y15	Z15	X16	Y16	Z16	X17	Y17	Z17	X18	Y18	Z18	X19	Y19	Z19	X20	Y20	Z20	X21	Y21	Z21	X22	Y22	Z22	X23	Y23	Z23	X24	Y24	Z24	X25	Y25	Z25	X26	Y26	Z26	X27	Y27	Z27	X28	Y28	Z28	X29	Y29	Z29	X30	Y30	Z30	X31	Y31	Z31	X32	Y32	Z32	X33	Y33	Z33	X34	Y34	Z34	X35	Y35	Z35	X36	Y36	Z36	X37	Y37	Z37	X38	Y38	Z38	X39	Y39	Z39	X40	Y40	Z40	X41	Y41	Z41	X42	Y42	Z42	X43	Y43	Z43	X44	Y44	Z44	X45	Y45	Z45	X46	Y46	Z46	X47	Y47	Z47	X48	Y48	Z48	X49	Y49	Z49	X50	Y50	Z50	X51	Y51	Z51	X52	Y52	Z52	X53	Y53	Z53	

453	4.52	-168.9142761230469	1045.331420898438	-415.2755126953125	-128.0196533203125	1118.996459960938	-400.7521057128906	-108.8559646606445	1317.964111328125	-638.5014038085938	-121.3687057495117	1247.18701171875	-390.8379821777344	-120.7327728271484	1511.421630859375	-439.6910705566406	-108.6987380981445	1433.55126953125	-607.189697265625	-56.08550643920898	1367.776123046875	-365.5292663574219	-230.6152648925781	1472.909545898438	-425.9047241210938	-282.1874389648438	1477.84375	-516.589599609375	-362.0748901367188	1359.0361328125	-490.5134582519531	-390.4154052734375	1149.614990234375	-507.9480285644531	-340.2201538085938	1130.335083007812	-438.68359375	-334.525390625	924.3348388671875	-618.7818603515625	-413.0772399902344	904.403076171875	-590.0020751953125	-405.3848571777344	1043.961547851562	-536.0717163085938	-341.3905944824219	731.876708984375	-640.1942138671875	-408.3015747070312	817.9892578125	-615.6013793945312	-358.283447265625	827.7567138671875	-660.43896484375	51.63262939453125	1471.669677734375	-484.8964233398438	114.771484375	1404.710571289062	-462.2547607421875	154.0451965332031	1123.947509765625	-451.5161743164062	62.46662902832031	1117.7685546875	-425.70849609375	113.4567031860352	917.2052612304688	-602.2276611328125	175.6070861816406	899.1419067382812	-547.9657592773438	166.9033813476562	1056.600341796875	-481.682373046875	103.1316070556641	726.230224609375	-626.6375122070312	127.7999267578125	798.7146606445312	-648.1971435546875	177.2813720703125	794.8196411132812	-594.6267700195312	-72.48117828369141	1661.176879882812	-460.4235534667969	-141.5077514648438	1732.7109375	-665.0123901367188	-41.65279006958008	1729.888671875	-651.8843383789062	-198.6575622558594	1676.782348632812	-521.1264038085938	-297.4160461425781	985.9351196289062	-531.8484497070312	65.74253845214844	1001.419494628906	-486.9154663085938	nan	nan	nan	-241.2138824462891	1029.936157226562	-625.3914794921875	-246.9856719970703	502.8874206542969	-549.2645263671875	-279.8607482910156	646.5442504882812	-555.7058715820312	-238.0048370361328	34.09259796142578	-457.1195678710938	-253.6847381591797	281.0755920410156	-495.92138671875	-164.0721588134766	40.77628326416016	-667.0176391601562	-126.8651580810547	34.45403289794922	-594.1260986328125	-242.4770660400391	36.27518844604492	-585.9700927734375	-191.7957763671875	38.11015701293945	-391.0061645507812	24.09783363342285	510.6569519042969	-525.824951171875	76.82887268066406	777.8442993164062	-546.9978637695312	-19.0269603729248	34.77011871337891	-427.8652038574219	4.968230247497559	393.0393676757812	-526.50537109375	-31.59836959838867	40.51802062988281	-643.5947265625	-83.07183074951172	36.1241569519043	-593.8084106445312	21.68714332580566	35.47085952758789	-532.8804931640625	-85.56900024414062	34.01690673828125	-374.415771484375	-50.29608535766602	1040.068969726562	-400.5717468261719	
454	4.53	-168.8836059570312	1045.368408203125	-415.2716674804688	-127.9317779541016	1118.995361328125	-400.6557006835938	-108.7719268798828	1317.991088867188	-638.5612182617188	-121.4428787231445	1247.197265625	-390.9712219238281	-120.7149200439453	1511.422241210938	-439.7349243164062	-108.6535873413086	1433.558227539062	-607.253662109375	-56.14921951293945	1367.792846679688	-365.5985412597656	-230.6665649414062	1472.931030273438	-426.0188293457031	-282.0983581542969	1477.887084960938	-516.7543334960938	-362.0046997070312	1359.103637695312	-490.98974609375	-390.4243469238281	1149.6748046875	-509.3176574707031	-340.6084594726562	1130.126586914062	-439.8168640136719	-332.9575805664062	925.6128540039062	-621.658447265625	-411.8302307128906	905.0858154296875	-593.6560668945312	-405.0879211425781	1044.213256835938	-538.3896484375	-339.0614013671875	733.4307250976562	-645.3273315429688	-406.4745178222656	818.9893798828125	-620.16796875	-356.1676940917969	829.4652099609375	-664.542236328125	51.64579772949219	1471.671752929688	-484.9242248535156	114.7773895263672	1404.690307617188	-462.3006591796875	154.0622406005859	1123.928833007812	-451.6535034179688	62.47632598876953	1117.740356445312	-425.8060607910156	113.2158432006836	917.3465576171875	-602.5418701171875	175.4005584716797	899.1822509765625	-548.3584594726562	166.7877197265625	1056.57470703125	-481.9250183105469	102.7499771118164	726.4066772460938	-627.192626953125	127.3735122680664	798.918701171875	-648.6904296875	176.9664154052734	794.90087890625	-595.1406860351562	-72.44364166259766	1661.19189453125	-460.4993896484375	-141.4501495361328	1732.730224609375	-665.100341796875	-41.58755874633789	1729.9091796875	-651.95703125	-198.6194915771484	1676.801391601562	-521.2181396484375	-297.419189453125	985.9564819335938	-531.883544921875	65.78366088867188	1001.439331054688	-486.9529113769531	nan	nan	nan	-241.1939849853516	1029.924194335938	-625.3824462890625	-247.0242919921875	502.8953552246094	-549.3162231445312	-279.8595886230469	646.5430297851562	-555.7250366210938	-238.0172882080078	34.09329223632812	-457.1242065429688	-253.6963653564453	281.0704345703125	-495.9519958496094	-164.0586090087891	40.78023147583008	-667.0081787109375	-126.8267669677734	34.44282150268555	-594.101806640625	-242.4619598388672	36.27815246582031	-585.9684448242188	-191.8052825927734	38.11323547363281	-391.0027160644531	24.20932769775391	510.7117309570312	-525.6085205078125	76.97360992431641	777.9042358398438	-546.822998046875	-19.0268611907959	34.75924682617188	-427.8552856445312	4.97530460357666	393.0348205566406	-526.3489379882812	-31.59853744506836	40.52433395385742	-643.5831909179688	-83.06517028808594	36.12696075439453	-593.807373046875	21.69601631164551	35.46638488769531	-532.8773803710938	-85.57707977294922	33.98343658447266	-374.4045715332031	-50.26898193359375	1040.094604492188	-400.6131286621094	
455	4.54	-168.8629608154297	1045.4130859375	-415.2784118652344	-127.8718338012695	1118.99609375	-400.5925903320312	-108.6825256347656	1318.022338867188	-638.624755859375	-121.5430603027344	1247.2099609375	-391.145263671875	-120.7065353393555	1511.425170898438	-439.7788696289062	-108.6030197143555	1433.569702148438	-607.313720703125	-56.22308349609375	1367.803955078125	-365.6625061035156	-230.71630859375	1472.954345703125	-426.1344604492188	-282.0191955566406	1477.93017578125	-516.9297485351562	-361.9460144042969	1359.170776367188	-491.4673461914062	-390.3973693847656	1149.738647460938	-510.6494445800781	-340.9307861328125	1129.936889648438	-440.9321899414062	-331.4148864746094	926.862060546875	-624.4461669921875	-410.5792541503906	905.7643432617188	-597.18701171875	-404.74951171875	1044.476928710938	-540.6438598632812	-336.7122497558594	734.9693603515625	-650.2432250976562	-404.6394348144531	819.9772338867188	-624.55615234375	-354.0766296386719	831.1331176757812	-668.4893188476562	51.65353775024414	1471.672485351562	-484.9371337890625	114.7717590332031	1404.672973632812	-462.3210144042969	154.0761108398438	1123.914184570312	-451.7534484863281	62.48332977294922	1117.71435546875	-425.8863525390625	113.0335922241211	917.4845581054688	-602.828369140625	175.2306060791016	899.2247314453125	-548.7064819335938	166.6862487792969	1056.555786132812	-482.1278381347656	102.4564437866211	726.5887451171875	-627.7228393554688	127.0170669555664	799.1200561523438	-649.1509399414062	176.7149963378906	794.9904174804688	-595.6102294921875	-72.40975189208984	1661.211791992188	-460.5724792480469	-141.3923797607422	1732.751953125	-665.18701171875	-41.52706146240234	1729.937255859375	-652.0274047851562	-198.5729675292969	1676.823486328125	-521.30810546875	-297.421142578125	985.9750366210938	-531.9208984375	65.80912780761719	1001.464599609375	-486.9830627441406	nan	nan	nan	-241.1767272949219	1029.908935546875	-625.38525390625	-247.0057830810547	502.893310546875	-549.363525390625	-279.8564453125	646.5323486328125	-555.7730712890625	-238.0296478271484	34.09529113769531	-457.1299438476562	-253.7059020996094	281.0620727539062	-495.9970397949219	-164.0442199707031	40.78196716308594	-667.0011596679688	-126.7870788574219	34.42896270751953	-594.0769653320312	-242.4458312988281	36.28336715698242	-585.9671630859375	-191.8137969970703	38.11667251586914	-391.0009460449219	24.32780838012695	510.7738037109375	-525.3335571289062	77.07967376708984	777.9573364257812	-546.6481323242188	-19.02805519104004	34.74583435058594	-427.8445739746094	4.987349510192871	393.03076171875	-526.1529541015625	-31.59945106506348	40.53170776367188	-643.5698852539062	-83.056640625	36.13115692138672	-593.8045043945312	21.70309257507324	35.45959854125977	-532.8718872070312	-85.58480072021484	33.94713973999023	-374.3931579589844	-50.25344467163086	1040.1279296875	-400.6485900878906	
456	4.55	-168.8518676757812	1045.466552734375	-415.2955627441406	-127.8541641235352	1119.001098632812	-400.5918273925781	-108.5907135009766	1318.0576171875	-638.6925659179688	-121.6569061279297	1247.22412109375	-391.343505859375	-120.7077484130859	1511.430908203125	-439.8236083984375	-108.5480270385742	1433.585693359375	-607.370849609375	-56.3059196472168	1367.8076171875	-365.7237243652344	-230.7612915039062	1472.97998046875	-426.2505798339844	-281.9494018554688	1477.97314453125	-517.1123657226562	-361.8998107910156	1359.233032226562	-491.9468078613281	-390.3143615722656	1149.802124023438	-511.939208984375	-341.1980590820312	1129.76611328125	-442.0322570800781	-329.9106750488281	928.0715942382812	-627.1361083984375	-409.323486328125	906.4308471679688	-600.5806884765625	-404.3607482910156	1044.740234375	-542.8251342773438	-334.3594055175781	736.478759765625	-654.9343872070312	-402.7995910644531	820.9405517578125	-628.747314453125	-352.0234680175781	832.7498168945312	-672.2717895507812	51.6555290222168	1471.671264648438	-484.9362182617188	114.7562255859375	1404.657836914062	-462.3166198730469	154.0858612060547	1123.902221679688	-451.8209228515625	62.48686218261719	1117.690185546875	-425.9508056640625	112.9069213867188	917.614990234375	-603.084716796875	175.0961151123047	899.2687377929688	-549.0111083984375	166.6041564941406	1056.543090820312	-482.2894897460938	102.2512588500977	726.7683715820312	-628.2274780273438	126.7524642944336	799.3167724609375	-649.5679321289062	176.5280609130859	795.0882568359375	-596.0330200195312	-72.37886047363281	1661.23681640625	-460.6435852050781	-141.3334655761719	1732.776977539062	-665.2723999023438	-41.47223281860352	1729.97314453125	-652.0950317382812	-198.5172729492188	1676.84814453125	-521.3967895507812	-297.4242858886719	986.002685546875	-531.9468383789062	65.81973266601562	1001.495239257812	-487.00830078125	nan	nan	nan	-241.163818359375	1029.88916015625	-625.39990234375	-246.9227447509766	502.8796997070312	-549.4036865234375	-279.851318359375	646.5121459960938	-555.845458984375	-238.03857421875	34.09831619262695	-457.1364135742188	-253.71044921875	281.0512390136719	-496.0562744140625	-164.0290832519531	40.78143692016602	-666.998046875	-126.7535018920898	34.41396713256836	-594.0572509765625	-242.4286346435547	36.2911262512207	-585.9668579101562	-191.8198089599609	38.12040328979492	-391.0014953613281	24.43529510498047	510.8341369628906	-525.0100708007812	77.12613677978516	777.9979248046875	-546.49072265625	-19.0307559967041	34.73002624511719	-427.8338317871094	5.005222320556641	393.0309448242188	-525.9192504882812	-31.60098457336426	40.54097366333008	-643.5556030273438	-83.04696655273438	36.1369514465332	-593.799072265625	21.70815277099609	35.45085906982422	-532.8633422851562	-85.59238433837891	33.9089241027832	-374.3819885253906	-50.24343872070312	1040.169067382812	-400.6764221191406	
